<?xml version="1.0" encoding="UTF-8"?><svg id="Layer_2" xmlns="http://www.w3.org/2000/svg" viewBox="0 0 169.45 170.67"><defs><style>.cls-1{fill:none;}.cls-2{fill:#ff9700;}.cls-3{fill:#22c55e;}.cls-4{fill:#141e51;}</style></defs><g id="Layer_1-2"><path class="cls-1" d="M66.32,125.18h42.94v-42.94h-42.94v42.94Zm21.47-40.49c10.49,0,19.02,8.53,19.02,19.02s-8.53,19.02-19.02,19.02-19.02-8.53-19.02-19.02,8.53-19.02,19.02-19.02Z"/><path class="cls-3" d="M6.5,103.71c0,6.88,5.59,12.47,12.47,12.47,1.71,0,3.35-.35,4.84-.98-5.64-6.02-9.9-13.35-12.28-21.47-3.04,2.28-5.03,5.9-5.03,9.98Z"/><path class="cls-3" d="M150.48,86.71c-1.37,0-2.68,.23-3.91,.64,6.08,4.98,11.05,11.27,14.46,18.44,1.21-1.92,1.92-4.18,1.92-6.61,0-6.88-5.59-12.47-12.47-12.47Z"/><path class="cls-3" d="M159.07,32.3h-22.69c-.27,2.89-.89,5.83-1.88,8.8-3.85,11.61-14.65,18.45-25.18,16.01-10.3-2.39-14.47-10.39-17-19.31-.33-1.86-.57-3.7-.72-5.5h-4.32c-.2,2.35-.55,4.81-1.08,7.4-1.56,2.4-3.77,7.4-7.36,11.03-9.86,9.98-24.35,7.68-31.71-4.52-1.75-2.91-2.96-6.21-3.67-9.68-15.97,7.35-27.09,23.5-27.09,42.2,0,24.43,18.96,44.51,42.94,46.31v-49.81h53.44c24.43,0,44.51-18.96,46.31-42.94Z"/><path class="cls-3" d="M116.26,82.37v49.81H62.82c-36.98,0-45.17,18.36-46.29,31.49H112.76c40.41,0,46.44-21.92,46.44-34.99,0-24.43-18.96-44.51-42.94-46.31Z"/><path class="cls-2" d="M87.79,115.73c6.63,0,12.02-5.39,12.02-12.02s-5.39-12.02-12.02-12.02-12.02,5.39-12.02,12.02,5.39,12.02,12.02,12.02Z"/><g><path class="cls-4" d="M169.45,99.18c0-10.46-8.51-18.97-18.97-18.97-3.65,0-7.05,1.05-9.95,2.85-2.77-1.69-5.71-3.14-8.78-4.32,20.11-7.68,34.45-27.16,34.45-49.94v-3.5h-29.92c-.71-5.7-2.98-11.16-6.96-16.28-8.6-11.08-23.09-11.03-31.55,.19-3.75,4.97-5.61,10.36-6.13,16.09h-4.31c-.51-6.51-2.68-12.15-6.84-17.33-8.69-10.83-22.86-10.57-31.26,.45-4.31,5.66-6.51,13.28-6.49,20.81-19.54,7.96-33.35,27.14-33.35,49.51,0,2.81,.22,5.56,.64,8.25-5.96,3.2-10.02,9.49-10.02,16.72,0,10.46,8.51,18.97,18.97,18.97,3.6,0,6.96-1.03,9.83-2.78,3.79,3.14,8.01,5.76,12.57,7.77-20.57,5.33-31.99,19.08-31.99,39.5v3.5H112.76c33.96,0,53.44-15.31,53.44-41.99,0-5.56-.86-10.93-2.45-15.98,3.51-3.44,5.7-8.23,5.7-13.53ZM104.53,11.54c2.61-2.69,6.55-4.16,10.28-3.83,3.3,.29,6.15,1.98,8.03,4.76,.4,.59,.45,1.34,.15,1.97-.3,.64-.92,1.07-1.62,1.14-4.65,.44-8.16,2.12-10.17,4.87-1.94,2.66-2.46,6.35-1.52,10.66,.64,2.92,2.45,6.19,4.96,8.95,.65,.72,2.63,2.89,8.45,.08,.8-.39,1.75-.2,2.35,.45,.6,.65,.69,1.62,.23,2.38-2.8,4.62-6.72,7.43-11.04,7.92-.43,.05-.86,.07-1.29,.07-3.31,0-6.48-1.43-9.06-4.11-8.23-8.55-8.11-26.7,.23-35.31Zm-48.1-1.12c2.74-2.58,5.88-3.82,9.07-3.6,3.31,.23,6.4,2.02,8.94,5.18,.49,.61,.58,1.45,.23,2.15-.35,.7-1.07,1.13-1.85,1.11-3.95-.13-7.02,.88-9.1,3-2.28,2.32-3.37,6.06-3.14,10.8,.2,4.18,1.44,7.24,3.67,9.11,2.26,1.89,5.56,2.57,9.79,2.03,.76-.1,1.5,.24,1.92,.87,.42,.63,.45,1.45,.07,2.11-2.27,3.93-5.9,6.46-9.96,6.93-.46,.05-.91,.08-1.37,.08-3.43,0-6.77-1.5-9.34-4.22-8.38-8.91-7.83-27.18,1.06-35.54ZM18.97,116.18c-6.87,0-12.47-5.59-12.47-12.47,0-4.08,1.98-7.71,5.03-9.98,2.38,8.12,6.64,15.45,12.28,21.47-1.49,.63-3.12,.98-4.84,.98Zm-2.59-37.44c0-18.7,11.12-34.85,27.09-42.2,.71,3.47,1.92,6.78,3.67,9.68,7.35,12.19,21.85,14.49,31.71,4.52,3.59-3.64,5.8-8.63,7.36-11.03,.52-2.59,.88-5.05,1.08-7.4h4.32c.14,1.81,.38,3.64,.72,5.5,2.53,8.92,6.7,16.92,17,19.31,10.52,2.44,21.32-4.4,25.18-16.01,.99-2.98,1.61-5.92,1.88-8.8h22.69c-1.79,23.98-21.88,42.94-46.31,42.94H59.32v49.81c-23.98-1.79-42.94-21.88-42.94-46.31Zm92.88,3.5v42.94h-42.94v-42.94h42.94Zm3.5,81.43H16.53c1.12-13.13,9.32-31.49,46.29-31.49h53.44v-49.81c23.98,1.79,42.94,21.88,42.94,46.31,0,13.07-6.03,34.99-46.44,34.99Zm33.81-76.32c1.23-.41,2.55-.64,3.91-.64,6.88,0,12.47,5.59,12.47,12.47,0,2.43-.71,4.69-1.92,6.61-3.42-7.17-8.38-13.46-14.46-18.44Z"/><path class="cls-4" d="M87.79,122.73c10.49,0,19.02-8.53,19.02-19.02s-8.53-19.02-19.02-19.02-19.02,8.53-19.02,19.02,8.53,19.02,19.02,19.02Zm0-31.04c6.63,0,12.02,5.39,12.02,12.02s-5.39,12.02-12.02,12.02-12.02-5.39-12.02-12.02,5.39-12.02,12.02-12.02Z"/></g></g></svg>
